<svg width="118" height="40" viewBox="0 0 118 40" fill="none" xmlns="http://www.w3.org/2000/svg">
<g clip-path="url(#clip0)">
<path d="M6.69264 20.8286C6.66675 20.5697 6.66675 20.2849 6.66675 20.0001C6.66675 12.6473 12.6473 6.66675 20.0001 6.66675C27.3528 6.66675 33.3334 12.6473 33.3334 20.0001C33.3334 27.3528 27.3528 33.3334 20.0001 33.3334C19.9742 33.3334 19.4823 33.3334 19.4564 33.3334C17.8512 33.2816 16.5308 32.1425 16.2201 30.615C15.6247 27.1457 12.8544 24.4014 9.3593 23.8318C7.88358 23.4952 6.77031 22.2266 6.69264 20.6732C6.69264 20.6214 6.69264 20.5697 6.69264 20.492" fill="url(#paint0_linear)"/>
<path d="M19.068 25.0485C21.4499 24.479 23.547 23.2362 25.2039 21.5275C26.0065 20.699 26.0065 19.301 25.2039 18.4725C23.547 16.7896 21.424 15.5469 19.068 14.9514C17.903 14.6667 16.7379 15.3398 16.4013 16.479C16.0907 17.5922 15.9094 18.7832 15.9094 20C15.9094 21.2168 16.0907 22.4078 16.4013 23.5469C16.7379 24.6602 17.9288 25.3333 19.068 25.0485Z" fill="white"/>
<path d="M56.6602 11.9739H41.4628C41.3333 11.9739 41.2039 12.0774 41.2039 12.2069L41.1003 13.2684C41.0744 13.3978 41.178 13.5014 41.3333 13.5014H46.5372C46.4854 13.838 46.2265 15.4431 46.1748 15.8315H41.7476C41.5404 15.8315 41.3592 15.9868 41.3333 16.1939L40.0647 27.6891C40.0388 27.9221 40.2201 28.1033 40.479 28.1033H54.3042C54.5631 28.1033 54.7702 27.9221 54.7961 27.6891L56.0129 16.1939C56.0388 15.9868 55.8835 15.8056 55.6505 15.8056H51.1974L51.4563 13.4755H56.5049C56.6343 13.4755 56.7379 13.3719 56.7379 13.2684L56.8673 12.1551C56.8673 12.0774 56.7896 11.9739 56.6602 11.9739ZM48.0388 13.5014H49.9288L49.6699 15.8315H47.6764C47.7281 15.4431 47.9871 13.838 48.0388 13.5014ZM54.123 17.359C54.2524 17.359 54.3301 17.4625 54.3301 17.5661L53.3981 26.3946C53.3981 26.4981 53.2945 26.5758 53.165 26.5758H41.9288C41.8252 26.5758 41.7217 26.4981 41.7476 26.3946L42.6796 17.5661C42.6796 17.4625 42.8091 17.359 42.9126 17.359H45.8382C45.6052 18.4205 45.1909 19.948 44.8803 20.9836C44.5696 21.9156 44.2589 22.7441 43.9223 23.469C43.8705 23.5726 43.9482 23.6761 44.0518 23.6761H45.2686C45.4239 23.6761 45.5793 23.5726 45.6311 23.4431C45.7605 23.1583 45.8641 22.8477 45.9935 22.5111C46.1489 22.071 46.3042 21.5791 46.4595 21.0871C46.6149 20.5952 46.7961 19.7409 46.9256 19.1972C47.055 18.6535 47.2104 17.9286 47.3398 17.359H49.5146L48.8932 23.3137C48.8673 23.5208 49.0226 23.6761 49.2557 23.6761H52.466C52.5696 23.6761 52.6472 23.5985 52.6731 23.4949L52.8026 22.304C52.8026 22.2004 52.7508 22.1227 52.6472 22.1227H50.576L51.0938 17.3072L54.123 17.359Z" fill="white"/>
<path d="M95.2619 18.4464H97.5143L97.0224 23.2102C96.9965 23.3655 97.126 23.495 97.2813 23.495H98.1875C98.3687 23.495 98.524 23.3655 98.5499 23.1843L99.0418 18.4464H101.708C101.786 18.4464 101.864 18.3946 101.864 18.317L101.993 17.126C101.993 17.0484 101.942 16.9966 101.864 16.9966H99.3784L99.5855 14.9254H101.501C101.579 14.9254 101.657 14.8736 101.657 14.7959L101.786 13.605C101.786 13.5273 101.734 13.4755 101.657 13.4755H99.7409L99.8962 12.1034C99.9221 11.9739 99.8185 11.8704 99.6632 11.8704H98.6535C98.524 11.8704 98.3946 11.9739 98.3687 12.1034L97.8509 17.0225H96.5564C96.4787 17.0225 96.4269 16.9707 96.4528 16.893L96.893 12.673C96.9189 12.5435 96.8153 12.4399 96.66 12.4399H95.702C95.5726 12.4399 95.4431 12.5435 95.4172 12.673L94.8477 17.7474L94.8218 18.0063C94.7959 18.2393 95.003 18.4464 95.2619 18.4464Z" fill="white"/>
<path d="M94.4076 23.5727H95.5468C95.6504 23.5727 95.728 23.495 95.7539 23.4173C95.8575 22.7701 96.1682 20.7766 96.2458 19.9999C96.2458 19.8704 96.1423 19.7668 96.0128 19.7668H94.9254C94.8219 19.7668 94.7442 19.8445 94.7183 19.9481C94.5112 21.7863 94.33 22.5889 94.2005 23.3397C94.1746 23.4432 94.2782 23.5727 94.4076 23.5727Z" fill="white"/>
<path d="M108.103 25.592C107.715 24.8671 107.508 24.3751 107.327 23.8315C107.275 23.702 107.171 23.6243 107.042 23.6243H106.239C106.447 23.0806 106.602 22.4852 106.68 21.8897L107.068 17.9803C107.094 17.8509 106.99 17.7473 106.861 17.7473H105.825C105.696 17.7473 105.566 17.8509 105.566 17.9803L105.152 21.8897C105.048 22.537 104.945 23.0548 104.712 23.5984C104.479 24.1421 104.116 24.6599 103.754 25.1518C103.392 25.6696 102.874 26.2392 102.356 26.757C101.942 27.1454 101.605 27.4819 101.139 27.8703C101.01 27.9739 101.087 28.181 101.243 28.181H102.615C102.874 28.181 103.107 28.0774 103.288 27.8962C103.728 27.4819 104.22 27.0159 104.608 26.5499C105.074 25.9803 105.618 25.1518 105.929 24.5046C106.162 25.0224 106.498 25.7214 106.757 26.2392C107.301 27.2748 107.586 27.6891 107.741 27.948C107.845 28.1033 108.052 28.2069 108.259 28.2069H109.424C109.553 28.2069 109.657 28.0256 109.579 27.9221C109.191 27.4302 108.595 26.524 108.103 25.592Z" fill="white"/>
<path d="M110.33 11.9739H103.34C103.21 11.9739 103.081 12.0774 103.055 12.2069L102.951 13.2425C102.925 13.3719 103.029 13.4755 103.184 13.4755H105.877L105.359 15.0807H103.391C103.184 15.0807 102.977 15.236 102.951 15.4431L102.123 23.236C102.097 23.3655 102.201 23.469 102.356 23.469H103.366C103.495 23.469 103.624 23.3655 103.65 23.236L104.349 16.5305C104.349 16.5046 104.375 16.4528 104.427 16.4528H108.388C108.414 16.4528 108.466 16.4787 108.44 16.5305L107.741 23.236C107.715 23.3655 107.819 23.469 107.974 23.469H108.984C109.113 23.469 109.243 23.3396 109.268 23.2101L110.097 15.4172C110.123 15.2101 109.968 15.0548 109.735 15.0548H106.835L107.327 13.4496H110.123C110.252 13.4496 110.382 13.346 110.408 13.2166L110.511 12.181C110.563 12.1033 110.459 11.9739 110.33 11.9739Z" fill="white"/>
<path d="M101.502 19.7927C101.217 19.7927 100.725 19.7927 100.466 19.7927C100.337 19.7927 100.233 19.8963 100.207 20.0257C100.129 20.4918 100 21.7345 99.5858 22.6147C98.7832 24.3235 97.5922 25.618 94.3819 26.4206C94.2524 26.4464 94.1489 26.4982 94.0712 26.5241C93.9418 26.55 93.8123 26.6795 93.8123 26.8089L93.6829 27.9222C93.6829 28.0257 93.7346 28.1293 93.8123 28.1552C93.8641 28.1811 93.9159 28.1811 93.9418 28.1552C100.181 26.4982 101.217 23.8833 101.683 20.0257C101.709 19.9222 101.631 19.7927 101.502 19.7927Z" fill="white"/>
<path d="M81.9027 22.7442C81.7733 21.9934 81.4367 19.6115 81.359 18.9383C81.359 18.8348 81.2555 18.7571 81.1519 18.7571H79.9869C80.0645 18.5759 81.4626 15.8315 81.6956 15.2879C81.8509 14.9513 82.0063 14.5888 82.1357 14.2523C82.2134 14.0451 82.058 13.838 81.8509 13.838H80.194L80.2458 13.4238L80.4011 12.0516C80.427 11.9222 80.3234 11.8186 80.1681 11.8186H79.1584C79.0289 11.8186 78.8995 11.9222 78.8736 12.0516L78.6924 13.8639H76.4917C76.3623 13.8639 76.2328 13.9675 76.2069 14.0969L76.1293 15.1584C76.1034 15.2879 76.2069 15.3914 76.3623 15.3914H79.961C79.4432 16.6859 76.0775 22.1487 75.1972 23.4173C75.1195 23.5468 75.1972 23.7021 75.3526 23.7021H76.647C76.8024 23.7021 76.9577 23.6244 77.0354 23.495C77.139 23.3655 78.1228 21.6827 78.2781 21.372L77.5532 27.8963C77.5273 28.0257 77.6309 28.1293 77.7862 28.1293H78.8736C79.003 28.1293 79.1325 28.0257 79.1584 27.8963L79.9351 19.5597C80.0645 20.5953 80.2975 22.2782 80.3752 22.796C80.4011 22.8995 80.4788 22.9513 80.5823 22.9513H81.7215C81.825 22.9772 81.9286 22.8477 81.9027 22.7442Z" fill="white"/>
<path d="M91.5598 12H84.1294C83.8964 12 83.7151 12.1812 83.6892 12.3883L82.6019 22.7443C82.576 22.8738 82.6795 22.9773 82.8349 22.9773H83.8705C83.9999 22.9773 84.1294 22.8738 84.1553 22.7443L85.1132 13.657C85.1132 13.6052 85.165 13.5534 85.2426 13.5534H90.1876C90.2394 13.5534 90.2912 13.6052 90.2912 13.657L89.3074 22.7443C89.2815 22.8738 89.385 22.9773 89.5404 22.9773H90.5501C90.6795 22.9773 90.809 22.8738 90.8349 22.7443L91.9481 12.3883C91.9481 12.1812 91.7669 12 91.5598 12Z" fill="white"/>
<path d="M91.042 26.6275H88.0905C88.0388 26.6275 88.0129 26.6016 88.0129 26.5498L88.453 22.4333C88.4789 22.2003 88.2977 21.9932 88.0646 21.9932H87.4174C87.5727 21.3977 87.7022 20.7246 87.7799 19.9479L88.2718 15.3912C88.2977 15.2618 88.1941 15.1323 88.0388 15.1323H86.9773C86.8478 15.1323 86.7184 15.2359 86.7184 15.3653L86.2265 19.922C86.097 21.0352 85.864 22.1226 85.3721 23.0547C84.3883 24.9705 82.7831 26.498 81.0485 27.8702C80.9449 27.9737 80.9708 28.1291 81.1261 28.1291H82.7313C83.0161 28.1291 83.3527 28.0255 83.5857 27.8184C83.8187 27.6113 84.9578 26.498 85.4498 25.8249C86.0452 25.0223 86.4595 24.3233 86.796 23.6242L86.3818 27.5595C86.3559 27.8702 86.5889 28.155 86.8996 28.155H90.8866C91.0161 28.155 91.1456 28.0514 91.1714 27.8961L91.275 26.8605C91.275 26.731 91.1714 26.6275 91.042 26.6275Z" fill="white"/>
<path d="M73.9805 11.8961L61.4756 12.4139C61.1908 12.4397 60.9319 12.6469 60.9061 12.9317L60.673 15.1841C60.5695 16.0902 60.4141 17.3071 60.207 18.3944C59.9999 19.4818 59.7669 20.5951 59.4821 21.7342C59.1973 22.8734 58.8608 23.8313 58.4724 24.9705C58.1617 25.8766 57.7993 26.7828 57.4109 27.6113C57.2815 27.8961 57.4886 28.1808 57.8252 28.1808H58.4465C58.6536 28.1808 58.9125 28.0514 58.9902 27.8702C59.4044 26.9122 59.7928 25.8508 60.1294 24.8152C60.4918 23.676 60.8025 22.6922 61.0614 21.5789C61.3203 20.4656 61.5015 19.3783 61.6569 18.3168C61.8381 17.2553 61.9934 16.0902 62.0711 15.21L62.2264 13.9414L64.8931 13.8378C64.2718 19.2747 62.4077 27.1711 62.3818 27.2488L62.3041 27.4818C62.1747 27.8184 62.4336 28.1808 62.796 28.1808H68.9837C69.2167 28.1808 69.3721 27.9996 69.3721 27.7666L68.9319 21.5012C68.9319 21.3718 68.8025 21.2423 68.673 21.2423H67.6375C67.4821 21.2423 67.3786 21.3718 67.3786 21.5271L67.7151 26.5239C67.7151 26.5757 67.6633 26.6533 67.6116 26.6533H64.1941C64.1423 26.6533 64.1164 26.6016 64.1164 26.5498C64.7378 24.0902 65.9287 18.3168 66.4206 13.7601L67.1197 13.7342L70.9773 13.5789C70.9514 13.8378 70.9255 14.0967 70.9255 14.3815C70.5889 18.9122 70.7184 23.4171 71.5468 27.8702C71.5727 28.0514 71.7798 28.2067 71.987 28.2067H72.8154C73.152 28.2067 73.2556 27.8961 73.1779 27.6113C72.6342 25.1517 72.3753 22.6663 72.2976 20.1808C72.2718 19.0676 72.2718 17.9284 72.2976 16.8151C72.3235 16.2456 72.3494 15.7019 72.3753 15.1323C72.4012 14.8475 72.4012 14.5627 72.4271 14.3038C72.4271 14.1744 72.4012 13.6048 72.4789 13.5271L73.7993 13.4495C73.9028 13.4495 74.0064 13.3459 74.0064 13.2423L74.1099 12.1291C74.1876 11.9737 74.0841 11.8702 73.9805 11.8961Z" fill="white"/>
</g>
<defs>
<linearGradient id="paint0_linear" x1="20.0012" y1="6.66675" x2="20.0012" y2="33.3357" gradientUnits="userSpaceOnUse">
<stop stop-color="#FA5050"/>
<stop offset="0.9949" stop-color="#FB0414"/>
</linearGradient>
<clipPath id="clip0">
<rect width="103.858" height="26.6667" fill="white" transform="translate(6.66675 6.66675)"/>
</clipPath>
</defs>
</svg>
