<?xml version="1.0" encoding="utf-8"?>
<svg version="1.1" xmlns="http://www.w3.org/2000/svg" xmlns:xlink="http://www.w3.org/1999/xlink" x="0px" y="0px"
	 viewBox="0 0 600 180" style="enable-background:new 0 0 600 180;" width="600" height="180" xml:space="preserve">
<style type="text/css">
	.st0{fill:#424242;}
	.st1{fill:url(#SVGID_1_);}
	.st2{fill:url(#SVGID_2_);}
	.st3{fill:url(#SVGID_3_);}
	.st4{fill:url(#SVGID_4_);}
</style>
<path class="st0" d="M298.5,128.8l10.3-49c0.8-4.1-1.6-8.2-6.4-8.2h-11.9l-1.6,6.9h9.3c2.1,0,2.5,1.3,2.1,3l-10.1,47.7
	c-1.2,5.6,2,7.3,8,7.3h13.6l1.9-6.2h-13.9C298.9,130.3,298.2,129.8,298.5,128.8 M260.2,117.6h-48.4l-1.6,5.7h48.4L260.2,117.6z
	 M285.6,44.4H277c-3.8,4.9-11.2,12.7-15.7,14.6h-5.5c1.2-1.9,7.5-14.6,7.5-14.6h-8.9L247,58.6c-5.2-3.5-7.5-9.5-9.4-14.2h-9.5
	c1.2,3.5,3.4,10.7,7.6,14.3h-13.1l-1.7,7.1h21.4c-1.3,2.2-2.8,4.2-4.5,6.1h-21.5l-1.7,6.8h17.1c-5.5,5.7-13.1,10.2-19,10.2l-1.7,7.7
	c0,0,9.2-1.7,13.7-4l-2.6,12.1c-0.8,3.6,0.1,6.3,3.8,6.3h35.9c2.9,0,3.7,2,3,5l-2.1,7.9c-1.1,3.8-2.9,5.9-6.1,5.9h-32.1l-2.2,6.5
	h32.9c7.5,0,12.8-0.7,14.8-9l4-17.8c0.6-2.6-1.8-4.8-4.1-4.8l2.3-11.5c1.9,1.5,4.1,2.6,6.4,3.4l2.6-5.5c-4.8-2.3-10.3-7.3-11.8-12.2
	h13.7l1.7-7.1h-36.8l3.8-6H282l1.6-6.9h-10.5C277.8,54.5,282,49.6,285.6,44.4 M264,97.6l-1.4,6.6h-32.3l2.5-11.1h27.9
	C265.3,93.2,264.2,96.4,264,97.6 M260.9,79c0.9,2.6,2.2,5,4,7.1h-29.8c2.6-2.1,5-4.5,7.1-7.1H260.9z M207.9,43.7
	c-1.9,0-6,0.2-7.9,1.3c0-0.4,0-0.8,0.1-1.2h-7.9l-18.3,82.5c-0.5,2.3-1.2,2.9-1.8,2.9h-3.8l-1.6,7.1h7.5c1.7,0,5.8-1.2,7.2-7.4
	l5.2-24H198l-4.7,21.8c-0.3,1.4-0.5,2.6-1.4,2.6h-5.2l-1.5,7.1h6.7c1.5,0,7,0.6,8.6-7.1l17-77.4C218.8,45.4,212.5,43.7,207.9,43.7
	 M199.6,97.4h-11.4l4.3-20h11.4L199.6,97.4z M209.3,53l-3.8,17.7h-11.4l3.9-18.1c1.3-1.2,5.3-1.7,6.4-1.7
	C205.4,50.9,209.6,51.3,209.3,53 M362.5,84.2h-20.2l6.2-27.6h-8.1l-6.2,27.7h-20.8l-1.7,6.9h20.8l-9.8,45.1h8.3l9.9-45.4h19.9
	L362.5,84.2z M307.6,64.1l6.3-3.2c-2.5-3.2-4.9-6.5-7.1-10c-1.5-2.3-2.7-4.7-3.8-7.2l-8,0c0,0,3,6,4.4,8.4S307.6,64.1,307.6,64.1
	 M365.4,127.8l14.5-67.9c1-6.5,2.8-13.8-10.8-13.8H328l-1.6,6.7h37.4c8.2,0,8.4,3,7.1,8.9l-14.5,67.7c-0.7,4.1,0.3,6.9,7.2,6.9
	c0.4,0,15.1-0.2,16.6,0l1.8-6.7l-14.8,0C365.9,129.6,365,129.4,365.4,127.8 M503.5,85.9l0.3-1.5H496l-0.3,0.9
	c-1.9,6.4-5.1,12.3-9.3,17.5c-1.8,2.4-3.9,4.6-6.1,6.6l-0.3,0.3l-1.7,10.3l2.3-1.4C480.7,118.5,498.4,107.8,503.5,85.9 M413.7,54.9
	l2.5-11.3h-7.2l-2.7,12.3h7.2L413.7,54.9z M429.6,105l0.2-0.9l10.7-47.8c1.9-2.2,4.7-3.4,7.6-3.4h17.3c0.2,0,0.3,0,0.5,0
	c1.2-0.1,2.4,0.2,3.4,0.8c0.7,0.5,1,1.4,0.9,2.2c0,0.7-0.1,1.3-0.3,2L459.3,105h7.9l10.6-47.8c0.3-1,0.4-2,0.4-3
	c0.1-2.4-1.1-4.6-3.2-5.9c-2.1-1.3-4.9-1.8-8.5-1.8c-0.3,0-0.6,0-0.9,0h-16.1c-0.6,0-1.1,0-1.6,0c-2.4,0-4.5,0.1-6.1,0.8l-0.1-0.9
	h-7.2L421.6,105L429.6,105L429.6,105z M447.8,128.1c0-0.2,0-0.4,0.1-0.6l6.8-35.5h-3.3l6.8-33.9h-8.1L443.3,93
	c-1.2,3.3-2.7,6.5-4.4,9.5c-3,5.4-7.6,12-13.9,16.8c-4.3,3.4-9,6.2-13.9,8.5c-1.2,0.5-2.4,1-3.7,1.4c-0.4,0.1-0.8,0.2-1.2,0.3
	l-0.7,0.1l-2.1,7.3l1.9-0.3c0.1,0,23.2-3.6,37.5-24.4l-3.2,15.6c-0.2,1-0.3,1.9-0.3,2.9c-0.1,1.6,0.5,3.2,1.7,4.3
	c1.4,1,3.2,1.5,4.9,1.4h26l0.2-0.9l1.3-5.8h-22.9C448.2,129.6,447.8,129.2,447.8,128.1 M570.5,128.6c-2.9-2.6-9.3-9.3-13.8-21.5
	l-0.3-0.8h-1.1l6.6-29.7h-7.9l-6.5,28.8c-0.6,1.7-1.4,3.4-2.3,4.9c-2.5,4.1-5.7,7.7-9.4,10.6c-3.7,2.9-7.8,5.2-12.2,6.7
	c-1.7,0.6-3.4,1-5.2,1.3l-0.8,0.1l-2.1,7.4l1.7-0.1c0.1,0,22.3-1,34.5-21.6c8.5,17.8,16.7,21.3,17.1,21.4l1,0.4l3.3-6.1l-0.9-0.6
	C572,129.9,571.5,129.5,570.5,128.6 M412.7,96.4l0.4,0.3l8.2-0.1l-1.4-1.9c0,0-1.1-1.6-2.6-4c-1.7-2.8-3-5.7-4-8.8l-0.3-0.9
	l-2.5,0.1l9.9-11.1c0-0.1,4.1-3.6,4.2-7.4c0-1.4-0.7-2.6-1.9-3.3c-1.7-0.8-3.7-1.2-5.6-1.1h-26.8l-1.3,6.7h25.9l-29.7,32l-3.2,13.3
	l17.6-18.2l-9.9,44.2h8l0.2-0.9l10.2-46.5C410.4,94.3,412.6,96.3,412.7,96.4 M541.1,46.9l-1.3,6.3H561c-2.9,5.8-6.2,10.5-7.7,11.7
	c-1.6,0.4-3.2,0.9-4.8,1.5l-0.1-1.1h-7.2l-10.8,48.7h7.5l0.2-0.9l8.3-38.2c1-1.2,2.3-2.1,3.8-2.7c2.2-0.6,4.5-0.9,6.8-0.8h0.4h12.2
	c2.5,0.2,2.6,0.7,2.7,2.1c0,0.4-0.1,0.8-0.1,1.2l-8.2,39.5h7.6l8-38c0.4-1.4,0.6-2.9,0.7-4.3c0.1-2.1-0.7-4.1-2.3-5.4
	c-1.8-1.2-3.9-1.9-6.1-1.7h-9.3c0.7-0.9,1.4-2,2.1-3.3c1.4-2.3,2.8-5.1,4.2-8.1h19.3l0.2-1l1.1-5.3L541.1,46.9L541.1,46.9z
	 M531.6,91.3l1.4-1.9h-9.6l-9,11.8l4.4-21.5l16.1,0l1.5-6.4h-17l2-9.8h16.4l0.2-0.9l1.2-5.8h-16.4l2.7-13.1h-7.8l-6.2,29.6H503
	l4.8-22.9h-7.6l-4.8,22.9h-11.9l-1.5,6.4h29.1l-6.5,30.4h2.9c-4.9,6.6-11.3,11.9-18.6,15.7c-2.3,1.1-4.7,2.1-7.1,2.8
	c-0.9,0.3-1.8,0.5-2.7,0.6l-0.9,0.1l-1.4,6.9l1.5,0c0.2,0,21-0.4,39.1-25.8C523.1,102.4,531.6,91.3,531.6,91.3"/>
<linearGradient id="SVGID_1_" gradientUnits="userSpaceOnUse" x1="87.691" y1="152.6848" x2="87.691" y2="31.9817" gradientTransform="matrix(1 0 0 -1 0 182)">
	<stop  offset="0" style="stop-color:#53C4FE"/>
	<stop  offset="1" style="stop-color:#0D84F4"/>
</linearGradient>
<path class="st1" d="M138.2,101.6c8.6-9,7.6-17.3-0.1-24.4C126.8,66.6,113.4,58,99.4,49.9c-13.6-7.9-28-14.4-42.8-19.7
	c-8.4-2.9-17.5,1.4-20.5,9.8c-0.3,0.8-0.5,1.6-0.6,2.4c-5.8,31.2-5.8,63.2-0.1,94.4c1.6,8.7,10,14.5,18.7,12.9
	c0.8-0.2,1.7-0.4,2.5-0.7c15.1-5.4,29.6-12.2,43.4-20.3C113.8,120.8,127.5,112.7,138.2,101.6z"/>
<linearGradient id="SVGID_2_" gradientUnits="userSpaceOnUse" x1="23.4862" y1="139.7154" x2="23.4862" y2="44.7524" gradientTransform="matrix(1 0 0 -1 0 182)">
	<stop  offset="0" style="stop-color:#F9B93B"/>
	<stop  offset="1" style="stop-color:#FA7535"/>
</linearGradient>
<path class="st2" d="M35.4,43.5c-0.4-0.1-0.8-0.2-1.2-0.4c-8.5-2.6-16,0.4-19.4,9.6c-4.2,11.5-4,24.4-4,37c0,12.6-0.1,25.3,3.9,36.8
	c3.7,10.6,10.9,12.2,19.4,9.6c0.4-0.1,1.5-0.6,1.8-0.7c-2.7-14.9-4.8-29.9-4.8-45.6C31.3,74.3,32.6,58.8,35.4,43.5z"/>
<linearGradient id="SVGID_3_" gradientUnits="userSpaceOnUse" x1="73.1928" y1="138.631" x2="73.1928" y2="46.056" gradientTransform="matrix(1 0 0 -1 0 182)">
	<stop  offset="0" style="stop-color:#AEF922"/>
	<stop  offset="1" style="stop-color:#62BB0D"/>
</linearGradient>
<path class="st3" d="M35.3,43.4c-5.5,30.6-5.6,62-0.1,92.6c13.4-4.1,26.5-9.3,39.1-15.6c12.7-6.3,24.9-13,35.3-21.3
	c7.8-6.2,7-13.4-0.1-19.2c-10.5-8.5-22.9-15.1-35.9-21.4C61.4,52.4,48.5,47.4,35.3,43.4z"/>
<linearGradient id="SVGID_4_" gradientUnits="userSpaceOnUse" x1="69.6424" y1="113.9929" x2="69.6424" y2="70.7044" gradientTransform="matrix(1 0 0 -1 0 182)">
	<stop  offset="0" style="stop-color:#FFFFFF"/>
	<stop  offset="0.6" style="stop-color:#FFFFFF"/>
	<stop  offset="1" style="stop-color:#E5F6D2"/>
</linearGradient>
<path class="st4" d="M49,70.5c0,0-1.3,1.9-1.3,19.1s1.3,19.3,1.3,19.3c0.4,2.1,1.4,2.8,3.7,2.3c0,0,3.9-0.6,19.4-8.4
	s18.1-10.8,18.1-10.8c1.7-1.7,2.1-2.8,0-4.6c0,0-4.2-3.9-18.1-11c-13.7-7-19.4-8.2-19.4-8.2C50.7,67.6,49.5,68.2,49,70.5z"/>
</svg>
